<svg width="24" height="25" viewBox="0 0 24 25" fill="none" xmlns="http://www.w3.org/2000/svg">
<path d="M12.001 2.66003C6.47598 2.66003 2.00098 7.13503 2.00098 12.66C2.00098 17.085 4.86348 20.8225 8.83848 22.1475C9.33848 22.235 9.52598 21.935 9.52598 21.6725C9.52598 21.435 9.51348 20.6475 9.51348 19.81C7.00098 20.2725 6.35098 19.1975 6.15098 18.635C6.03848 18.3475 5.55098 17.46 5.12598 17.2225C4.77598 17.035 4.27598 16.5725 5.11348 16.56C5.90098 16.5475 6.46348 17.285 6.65098 17.585C7.55098 19.0975 8.98848 18.6725 9.56348 18.41C9.65098 17.76 9.91348 17.3225 10.201 17.0725C7.97598 16.8225 5.65098 15.96 5.65098 12.135C5.65098 11.0475 6.03848 10.1475 6.67598 9.44753C6.57598 9.19753 6.22598 8.17253 6.77598 6.79753C6.77598 6.79753 7.61348 6.53503 9.52598 7.82253C10.326 7.59753 11.176 7.48503 12.026 7.48503C12.876 7.48503 13.726 7.59753 14.526 7.82253C16.4385 6.52253 17.276 6.79753 17.276 6.79753C17.826 8.17253 17.476 9.19753 17.376 9.44753C18.0135 10.1475 18.401 11.035 18.401 12.135C18.401 15.9725 16.0635 16.8225 13.8385 17.0725C14.201 17.385 14.5135 17.985 14.5135 18.9225C14.5135 20.26 14.501 21.335 14.501 21.6725C14.501 21.935 14.6885 22.2475 15.1885 22.1475C19.259 20.7733 21.9999 16.9563 22.001 12.66C22.001 7.13503 17.526 2.66003 12.001 2.66003Z" fill="#62748E"/>
</svg>
