<svg width="24" height="25" viewBox="0 0 24 25" fill="none" xmlns="http://www.w3.org/2000/svg">
<path d="M6.94048 5.65996C6.94011 6.47427 6.44608 7.20705 5.69134 7.51276C4.9366 7.81848 4.07187 7.63608 3.5049 7.05158C2.93793 6.46707 2.78195 5.59718 3.1105 4.8521C3.43906 4.10702 4.18654 3.63553 5.00048 3.65996C6.08155 3.69241 6.94097 4.5784 6.94048 5.65996ZM7.00048 9.13996H3.00048V21.6599H7.00048V9.13996ZM13.3205 9.13996H9.34048V21.6599H13.2805V15.0899C13.2805 11.4299 18.0505 11.0899 18.0505 15.0899V21.6599H22.0005V13.7299C22.0005 7.55996 14.9405 7.78996 13.2805 10.8199L13.3205 9.13996Z" fill="#62748E"/>
</svg>
